# xmcd
#
# Track frame offsets: 
#        150
#        75728
#        117182
#        136629
#        172356
#        235631
#        272861
#        294499
#
# Disc length: 4265 seconds
#
# Revision: 0
# Processed by: cddbd v1.5.2PL0 Copyright (c) Steve Scherf et al.
# Submitted via: ExactAudioCopy v1.0b3
#
DISCID=6c10a708
DTITLE=Jean-Pierre Garattoni - Zeit Für Mich - Positiv in den Tag
DYEAR=2010
DGENRE=New Age
TTITLE0=Ich bin bei mir - entspannt und wach
TTITLE1=Prioritäten
TTITLE2=Tu es gleich
TTITLE3=Effektive Schritte
TTITLE4=Meine Zeit
TTITLE5=Fitness - positiv in den Tag
TTITLE6=Awakening
TTITLE7=Daybreak
EXTD=
EXTT0=
EXTT1=
EXTT2=
EXTT3=
EXTT4=
EXTT5=
EXTT6=
EXTT7=
PLAYORDER=
